<?xml version="1.0" encoding="utf-8"?>
<!-- Generator: Adobe Illustrator 24.0.0, SVG Export Plug-In . SVG Version: 6.00 Build 0)  -->
<svg version="1.1" xmlns="http://www.w3.org/2000/svg" xmlns:xlink="http://www.w3.org/1999/xlink" x="0px" y="0px"
	 viewBox="0 0 500 500" style="enable-background:new 0 0 500 500;" xml:space="preserve">
<style type="text/css">
	.st0{fill:#92E3A9;}
	.st1{opacity:0.7;fill:#FFFFFF;}
	.st2{opacity:0.1;}
	.st3{fill:#F4F3F8;}
	.st4{fill:none;stroke:#000000;stroke-linecap:round;stroke-linejoin:round;stroke-miterlimit:10;}
	.st5{fill:#263238;}
	.st6{opacity:0.3;}
	.st7{opacity:0.8;fill:#FFFFFF;}
	.st8{fill:none;stroke:#263238;stroke-linecap:round;stroke-linejoin:round;stroke-miterlimit:10;}
	.st9{fill:none;stroke:#263238;stroke-linecap:round;stroke-linejoin:round;}
	.st10{fill:none;stroke:#263238;stroke-linecap:round;stroke-linejoin:round;stroke-dasharray:3.911,3.911;}
	.st11{fill:none;stroke:#263238;stroke-linecap:round;stroke-linejoin:round;stroke-dasharray:3.8819,3.8819;}
	.st12{fill:none;stroke:#263238;stroke-linecap:round;stroke-linejoin:round;stroke-dasharray:4.0655,4.0655;}
	.st13{fill:none;stroke:#263238;stroke-linecap:round;stroke-linejoin:round;stroke-miterlimit:10;stroke-dasharray:4,4;}
	.st14{fill:#F4F3F8;stroke:#000000;stroke-linecap:round;stroke-linejoin:round;stroke-miterlimit:10;}
	.st15{fill:#FFFFFF;stroke:#000000;stroke-linecap:round;stroke-linejoin:round;stroke-miterlimit:10;}
	.st16{fill:#FFFFFF;stroke:#263238;stroke-linecap:round;stroke-linejoin:round;stroke-miterlimit:10;}
	.st17{fill:none;stroke:#263238;stroke-width:0.2;stroke-linecap:round;stroke-linejoin:round;stroke-miterlimit:10;}
</style>
<g id="Background_Simple">
	<g>
		<path class="st0" d="M325.7,40.1c-36.8,0.6-65.2,30.7-96.7,49.8c-47.6,28.8-108.7,34.6-148.9,73c-27.5,26.3-41.1,66-37.3,103.8
			s24.6,73.4,54.7,96.7c19.2,14.9,41.7,24.9,64.7,32.7c23.3,7.9,47.5,13.8,72.1,14.1c34.1,0.4,67.6-9.9,98.4-24.4
			c21.4-10.1,42.1-22.5,59-39.1c15.9-15.7,28.2-35.1,36.5-55.9c20.7-51.4,17.4-110.2-0.5-162.6C412.9,84.9,376.6,39.2,325.7,40.1z"
			/>
		<path class="st1" d="M325.7,40.1c-36.8,0.6-65.2,30.7-96.7,49.8c-47.6,28.8-108.7,34.6-148.9,73c-27.5,26.3-41.1,66-37.3,103.8
			s24.6,73.4,54.7,96.7c19.2,14.9,41.7,24.9,64.7,32.7c23.3,7.9,47.5,13.8,72.1,14.1c34.1,0.4,67.6-9.9,98.4-24.4
			c21.4-10.1,42.1-22.5,59-39.1c15.9-15.7,28.2-35.1,36.5-55.9c20.7-51.4,17.4-110.2-0.5-162.6C412.9,84.9,376.6,39.2,325.7,40.1z"
			/>
	</g>
</g>
<g id="Wallet">
	<g>
		<path class="st2" d="M348.5,252.1c-0.3-7.5-0.8-15.6-1.6-23.9c-1.1-16.6-3.2-32.1-6.9-41.8c0,0,0,0,0,0c0,0,0,0,0,0c0,0,0,0,0,0
			l0,0c-20.7-4.2-128.6,3.6-128.7,3.6l-0.7-3c-0.1-0.4-0.2-0.8-0.3-1.2l-0.5-2.1l-0.1-0.5c-0.7-2.8-1.5-5.6-2.4-8.4c0,0,0,0,0,0l0,0
			c0,0-81.8-7.3-108.9-0.2v0c0,0,0,0,0,0c0,0.2,0,0.5,0,0.7l0.1,6.7c0.1,13-0.2,25.1,0.5,38.4l0,0.1c0,0,0,0,0,0c0,0-0.2,0-0.4,0
			c-2.2,0.3-4,1.8-4.7,3.8l0,0v0c-0.3,0.8-0.4,1.6-0.3,2.4l0.4,4.2c0,0.1,0,0.1,0,0.2c1,10.6,2,21.1,2,21.1l0,0c0,0,0.5,0,1.4,0.1
			l4.5,0.3c-9.6,0.9-20,13.5-19.5,24.4c0.4,10.9-10,31.3-7.4,43c2,9.2,12.3,23.9,17.3,35.1c-0.1,0.7-0.3,1.4-0.4,2.2l-22.4,44.9
			c1.5-2.2,15,56.5,77.7,44.1l44.6-72.7c-5.5,4.2,0,0,0,0c4.3-3.3,9.4-7.7,13.6-12.8c1.9-2,3.4-4,4.2-5.8c0,0,0,0,0,0
			c1.6-2.6,2.9-5.4,3.6-8.2c0.2-0.8,0.4-1.5,0.6-2.3c3.6-9.3,8.5-21.9,12.1-30.7c47-1.4,96.3-4.3,121.1-10.1c0,0,0,0,0.1,0
			C349.4,287.6,349.5,269.3,348.5,252.1z M107.1,293.1c0,0-0.6-3.8-0.7-8.2c0.5,2.9,1.1,5.8,1.8,8.6
			C107.8,293.4,107.5,293.3,107.1,293.1z"/>
		<g>
			<g>
				<path class="st3" d="M64.4,399.5c0,0,20.1,59.4,82.8,46.9c0,0,13.9-65.3,25.6-75c7.5-6.2,24.1-17.3,27.7-25.4
					c3.6-8.2,17.8-46.3,20.6-50.9c2.8-4.6-29.9-57.5-29.9-57.5l-68.8,35.5l-38.3,68C83.9,341.2,76.6,385.1,64.4,399.5z"/>
				<path class="st4" d="M83.3,346.4c0,0-4.9,36.7-21.1,55.9"/>
				<path class="st4" d="M147.2,446.4c0,0,13.8-63.2,25.6-75c0,0,26.5-15.4,31.3-33.6c3.3-12.6,9.3-27.1,12.2-33.6"/>
				<path class="st4" d="M152.8,306.2c-1-0.6,16,13,16.7,31.6"/>
			</g>
			<path class="st0" d="M337.9,294.8c-55.3,13-233.3,11.3-233.3,11.3c-1.5-3.2-3.3-11.1-5.1-20.3c-3.5-18.5-6.8-42.1-6.8-42.1
				l-5.9-0.4c0,0-1-10.5-2-21.1c-1-10.6,5-10.6,5-10.6l-0.4-36.8l-0.1-9.2c27.1-7.1,108.9,0.2,108.9,0.2l2.6,8.9l1.4,6.3l128.7-3.6
				C342.7,207.8,337.9,294.8,337.9,294.8z"/>
			<g>
				<path class="st5" d="M317.2,235.7l-84.3,4c-3.5,0.2-6.4-2.5-6.6-6l-0.8-17.1c-0.2-3.5,2.5-6.4,6-6.6l84.3-4
					c3.5-0.2,6.4,2.5,6.6,6l0.8,17.1C323.3,232.6,320.6,235.5,317.2,235.7z"/>
				<polygon class="st5" points="323.5,246.5 323.8,249.4 226.6,253.2 226.5,250.6 				"/>
				<polygon class="st5" points="324,256.5 324.1,259 226.9,262.6 226.9,260 				"/>
			</g>
			<path class="st6" d="M330.8,177.3c0,0,14.3,68,7.1,117.5c0,0-90.7,10.6-121.7,8.9l-1.3-16.5l2.6-0.4c0,0-12.5-94.5-15.4-105.9
				C202.2,180.9,310.1,173,330.8,177.3z"/>
			<path class="st7" d="M211.9,286.9l1.1,12.5c0,0-91.4,4-99.4,1.1s0.4-7.6,21.7-9.2C156.5,289.6,211.9,286.9,211.9,286.9z"/>
			<ellipse class="st5" cx="157.4" cy="226.3" rx="8.4" ry="7.6"/>
			<path class="st8" d="M92.8,243.6c2.1,22,5.6,41.2,11.8,62.4c38.8-0.3,77.5-0.8,116.3-2c38.8-1.2,78.6-3.9,117-9.3
				c0,0,6.9-60.8-7.1-117.5c-15.4-3.2-128.3,3.6-128.3,3.6"/>
			<path class="st8" d="M211.9,286.9l1.1,12.5l-87,2c-3.6,0.3-9.2,0.8-12.5-0.9c-1.5-0.8-2.6-2.7-1.9-4.2c0.6-1.4,2.3-1.9,3.8-2.2
				c10.6-2.2,21.5-3.1,32.3-3.9c23.2-1.7,46.4-2.9,69.7-3.5c-0.5,0-6.2-46.8-6.8-51.1c-2.5-16.9-4.8-33.9-7.8-50.7
				c-1.2-6.5-2.6-12.9-4.7-19.2c-35.8-2.6-73.3-4.9-108.9-0.2c0.3,15.9-0.3,30,0.5,45.9"/>
			<g>
				<g>
					<path class="st9" d="M103.3,301.4c0,0-0.3-0.8-0.4-2"/>
					<path class="st10" d="M103.5,295.6c1.3-3.3,5.3-7.1,16.2-8.3c19.8-2.2,62.9-6.2,88.2-7.1"/>
					<path class="st9" d="M209.8,280.1c0.7,0,1.3,0,2-0.1c-0.1-0.7-0.2-1.3-0.3-2"/>
					<path class="st11" d="M211,274.2c-4.6-32.7-9.6-65.2-15.4-97.8"/>
					<path class="st9" d="M195.3,174.5c-0.1-0.7-0.2-1.3-0.4-2c0,0-0.7-0.1-2-0.1"/>
					<path class="st12" d="M188.9,172.1c-16.6-1.1-63.9-3.9-95.5-1.7"/>
					<path class="st9" d="M91.4,170.5c-0.7,0.1-1.3,0.1-2,0.2"/>
				</g>
			</g>
			<path class="st8" d="M86.9,243.2l-2.4-25.5c-0.3-3.2,2.1-6.1,5.4-6.3c14.7-0.8,52.7-2.8,67.3-1.7c7,0.6,14.6,2.8,18,9.5
				c2.8,5.5,3.2,13.8-1.5,18.3c-7.2,6.9-20.9,6.4-30.1,6.7C126.3,244.9,86.9,243.4,86.9,243.2z"/>
			<path class="st5" d="M177.3,227.6c0-0.7,3.6,14.6-9.7,19.7c-13.3,5.1-74.9,3.5-74.9,3.5v-7.2c0,0,43.5,0.9,50.8,0.7
				C150.8,244.1,176.5,246.6,177.3,227.6z"/>
			<path class="st4" d="M164.5,313.4c0,0,10.9,6.4,15,18.3"/>
			<path class="st13" d="M84.8,215.3c0,0,53.4-2.5,66.9-2.1c13.6,0.5,20.2,3.4,21.6,11.9c1.4,8.5-6.9,13.8-13.4,14.8
				c-6.6,0.9-73,1.3-73,1.3"/>
			<g>
				<g>
					<path class="st14" d="M121.5,318.4c0,0-8.3-28.7-23.5-34.3c0,0-3-19.6,3.5-20.7c6.5-1.1,24.8-13.1,20-28.2
						c-4.8-15.1-19.1,7.6-28.7,8.4c-9.6,0.9-20,13.5-19.6,24.4c0.4,10.9-10,31.3-7.4,43c2.6,11.7,18.7,32.6,20,43.5"/>
					<path class="st15" d="M101.4,239.2c0,0,11.4,2.1,17.7-5.2c6.2-7.3-0.9-7.7-0.9-7.7L101.4,239.2z"/>
				</g>
				<path class="st4" d="M81,255.4c2.1,0.1,4.1,0.8,5.9,1.9"/>
				<path class="st4" d="M80.7,259.6c2.1,0.2,4.1,1,5.7,2.3"/>
			</g>
			<path class="st8" d="M111.6,298c0,0,49-2.5,61.9-1.8"/>
			<path class="st8" d="M161.5,292.5c0,0,12.3-1,20,0"/>
			<line class="st8" x1="192.8" y1="296.1" x2="212.7" y2="296.1"/>
			<path class="st13" d="M204.8,186.5c0,0,87.6-7.8,122.8-3.4c0,0,9.5,17.5,7.4,107c0,0-57,7.9-119.3,8.9"/>
		</g>
	</g>
</g>
<g id="Card">
	<g>
		<g class="st2">
			<path d="M442.1,310.4c-2.5-10.6-6.1-14.6-9.8-17.6c0,0-0.1-6-4.8-9.4c-1.2-1.1-2.6-2-4-3c-4.4-3.3-9.3-7-9.3-7
				c-2.3-6.6-5.4-14.6-8.7-22.5l0.2,1.8c-3.4-8.3-6.8-16.7-7.7-19.4c0,0,0,0,0-0.1c1,2.7,2,5.2,3.1,7.6l-12.5-44.3
				c-0.3-1.8-0.6-3.5-0.9-5.2c-0.6-5-2.2-14.4-6.2-15.1c-0.1,0-0.3,0-0.4,0c0,0-4.6-2-4.6,6.2c-5.5,1.8-7.6,6-8.2,10.9
				c-0.3,1.4-0.3,3-0.1,4.7c0.1,1.8,0.3,3.7,0.6,5.5L351,180.2l-1.7-2.3l-21.9-28.8L298,110.4c-4.6-6.1-13.2-7.2-19.3-2.6
				l-36.5,27.7l-14.3,10.8c-10.9,5.7-8.1,16.9-5,20.9l63.7,83.8c-0.6-0.1-1,0-1,0c0,0-1.8-4.3-6.3-3.6c-0.9,0-1.8,0.3-2.7,0.9
				c-0.7,0.4-1.3,0.9-1.8,1.6c-0.5,0.5-0.9,1.2-1.3,1.9c-2.3,3.9-0.2,13.5,3.1,25.2c0.2,0.8,0.4,1.5,0.6,2.2c0,0,0,0.1,0,0.1
				c0.3,1,0.6,1.9,0.9,2.9c3.2,11.2,9.3,33.3,10.4,44.1c0.1,1,0.1,2.1,0.2,3.1c0.1,12.5-5.5,33.3-3.1,41.9c0.3,1.1,0.6,2.2,1,3.3
				c1.8,5.8,3.4,11.2,6.1,16.6c3.4,6.6,7.4,12.9,11.2,19.3c6.9,11.7,14.1,23.3,21.5,34.8c3.4,5.3,7.4,10.1,11.3,15
				c1.8,2.3,5.6,5.7,6.3,8.6c0,0,34.2,2.8,53.4-9.3l-1.8-27.2l12.8-73.9c3.7-5.6,15-16.4,17.3-19.9c1.2-1.7,2.3-3.4,3.4-5.1
				c8.5-7.9,12.7-14,14.5-21.1C442.5,312.5,442.4,311.7,442.1,310.4z M322.2,324.8C322.2,324.8,322.2,324.8,322.2,324.8
				C322.2,324.8,322.2,324.8,322.2,324.8C322.2,324.8,322.2,324.8,322.2,324.8z M323.6,326.5l-0.2-0.3c1.6,0.8,5.4,2.3,11,3.2
				C330.4,328.9,325.9,328.3,323.6,326.5z M338,329.8C338,329.8,338,329.8,338,329.8c0.6,0.1,1.2,0.1,1.8,0.1
				C339.3,330,338.6,329.9,338,329.8z M323.2,325.8l-2.3-4.6c-3.2-9.2-10.4-30.8-10.5-30.9c0,0,0,0,0,0c0,0-1.9-8.9-5.6-18.2
				c3.3,1.2,7.2,0.7,10.2-1.6l17.5-13.3c1.8,1.1,3.7,2.1,5.5,2.9l16.4,12.8l-13,53.4L323.2,325.8z M389.5,202.7
				C389.5,202.7,389.5,202.7,389.5,202.7c1.4,6.4,3.5,15.6,6.4,24.5C393.7,220.8,391.1,212.1,389.5,202.7z"/>
			<path d="M315.2,459.5l0.1,0.5C315.4,459.9,315.3,459.8,315.2,459.5z"/>
		</g>
		<g>
			<g>
				<path class="st3" d="M376,204.7c1-0.7,15.7-8.6,23,15.3c7.3,23.9,16,64.7,16,64.7l-17.4,3.4c0,0-16.2-8.6-30.6-30.1
					c0,0-20.3-5.3-29.1-17.8c-8-11.4,16.7-53.1,16.7-53.1L376,204.7z"/>
				<path class="st4" d="M369.7,234.5c4.3,6.5,12.5,20.1,23.5,24.4"/>
				<path class="st4" d="M357.5,241.4c2,0.8,7,3.7,9.4,3.8c0,0,10.2,20.2,27,26.7"/>
				<path class="st4" d="M348.2,248.8c6.3,5.2,13.7,8.8,18.7,9c0,0,10.2,20.2,27,26.7"/>
			</g>
			<g>
				<path class="st0" d="M384,219l-50.7,38.6c-6.1,4.6-14.7,3.4-19.3-2.6l-73.3-96.6c-1.2-1.6-2-3.4-2.5-5.3
					c-1.2-5.1,0.7-10.6,5.1-14l14.3-10.8l36.5-27.7c6.1-4.6,14.7-3.4,19.3,2.6l29.4,38.7l21.9,28.8l22,29
					C391.2,205.8,390,214.4,384,219z"/>
				<path class="st2" d="M342.7,141.9l-85.2-13.7l36.5-27.7c6.1-4.6,14.7-3.4,19.3,2.6L342.7,141.9z"/>
				<path class="st2" d="M384,219l-50.7,38.6c-6.1,4.6-14.7,3.4-19.3-2.6l-73.3-96.6c-1.2-1.6-2-3.4-2.5-5.3L366.3,173l20.3,26.7
					C391.2,205.8,390,214.4,384,219z"/>
				<path class="st16" d="M317,131.1l-9,6.8c-1.8,1.4-4.3,1-5.7-0.8l-10.9-14.3c-1.4-1.8-1-4.3,0.8-5.7l9-6.8c1.8-1.4,4.3-1,5.7,0.8
					l10.9,14.3C319.1,127.2,318.8,129.7,317,131.1z"/>
				<line class="st16" x1="296.9" y1="113.6" x2="312.4" y2="134.6"/>
				<line class="st16" x1="296.9" y1="130" x2="312.4" y2="118.3"/>
				<polygon class="st5" points="326.9,251.3 324.2,253.2 292,210.8 294.6,208.8 				"/>
				<polygon class="st5" points="331.3,248 328.7,249.9 296.5,207.4 299.1,205.5 				"/>
				<polygon class="st5" points="335.8,244.7 333.2,246.6 300.9,204.1 303.5,202.1 				"/>
				<polygon class="st5" points="340.3,241.4 337.6,243.3 305.8,201.3 308.4,199.4 				"/>
				<polygon class="st5" points="345.1,237.8 342.5,239.7 310.5,197.7 313.1,195.7 				"/>
				<polygon class="st5" points="345.1,188.3 342.5,190.3 310.5,148.3 313.1,146.3 				"/>
				
					<rect x="315.9" y="101" transform="matrix(0.7963 -0.6049 0.6049 0.7963 -41.1958 228.3858)" class="st5" width="5.1" height="148.7"/>
				<path class="st17" d="M384,219l-50.7,38.6c-6.1,4.6-14.7,3.4-19.3-2.6l-73.3-96.6c-1.2-1.6-2-3.4-2.5-5.3
					c-1.2-5.1,0.7-10.6,5.1-14l14.3-10.8l36.5-27.7c6.1-4.6,14.7-3.4,19.3,2.6l29.4,38.7l21.9,28.8l22,29
					C391.2,205.8,390,214.4,384,219z"/>
			</g>
			<path class="st3" d="M342.9,469c0,0,59.1,21,76.9-24.7c0,0-28-34-12.7-61.8c9.6-17.5,36.2-56.1,36.2-56.1s11.1-10.5,14.5-21.1
				c0,0-1.9-11.8-10.3-19.8c0,0-0.1-6-4.8-9.4c-4.7-3.4-13.3-10-13.3-10s-14.1-33.9-16.2-40.1c-2.1-6.2-6.3-17.7-8.4-30.5
				c-2.1-12.8-4.1-26.6-8.5-26.5c0,0-4.6-2-4.6,6.2c0,0-9.7,5-8.3,15.6c1.4,10.6,2.8,16,2.4,22c-0.4,6,1.5,26.6,6.3,33.1
				c0,0,1.6,29,4,36.6c0.1,0.2,0.1,0.4,0.2,0.6c2.5,6.4-22.7,31.1-36.3,37.7c0,0-1.4,2.7-6.7,1.9c-5.3-0.7-14.2-1.1-15.8-5
				c-1.5-3.9-11.8-34.5-11.8-34.5s-8.3-39.3-24.8-39.3c0,0-2.5-6-9-2.7c-6.5,3.3-2.2,21.2,0.6,30.9c2.9,9.8,10.1,35.5,11.3,47.3
				c1.2,11.8-5.5,35.5-2.9,44.8c2.6,9.3,5.3,15.6,13.4,30.9C322.2,410.3,340,455.7,342.9,469z"/>
			<path class="st4" d="M342.9,469c0,0-12.6-47.6-31.2-78.3c-18.6-30.8-7.7-41.7-7.7-67.3s-20.9-69.2-15.2-78.8
				c5.6-9.6,13.3-1.9,16.5,7c3.2,9-1.3,14.1-10.3,14.7"/>
			<path class="st4" d="M300.8,243.7c0,0,10.8-0.7,17.4,16.6c6.6,17.2,17.2,61,28.3,74.3"/>
			<path class="st4" d="M337.8,318.5c0.1,0.1,15.4,8.7,39.3,1.2"/>
			<path class="st4" d="M302.9,294.4c2.4-3,6.4-4.5,10.1-3.8"/>
			<path class="st4" d="M304.9,299.8c2-2.5,5.6-3.7,8.7-2.8"/>
			<path class="st4" d="M391.6,175.1c-15.7,5.2-4,28.9-5.9,37.6c-1.9,8.6,3,25.2,6.8,34.2c0,10.5,3.8,36.1,3.8,36.1
				c-2.3,8.1-21.7,32.1-40.5,39.6"/>
			<path class="st4" d="M403.2,187.1c0,0-1.2-18.1-6.9-18.1c-5.7,0-5.4,12.2-3,21.3C395.7,199.3,404.9,197.9,403.2,187.1z"/>
			<path class="st4" d="M403.2,187.1c0,0,4.9,28.5,13.2,46.5"/>
			<path class="st4" d="M426.1,300.3c4-6.5,5.8-12.6,7.3-20.4c-0.4-4.9-6-20.9-12.5-36.3"/>
			<path class="st4" d="M430,267.6c6.5,4.9,17.8,8.6,16.5,17.1c-1.2,7.9-4.3,16.2-8.7,23.9"/>
			<path class="st4" d="M421.2,446.4c0,0-22.6-31.4-18.1-53.1c3.3-15.9,24.7-43.8,40.1-66.9c8.5-7.9,12.7-14,14.5-21.1
				c-2.7-13.4-7.1-17.2-11.3-20.7"/>
			<path class="st4" d="M427.3,272.7c-5-1.4-10.6-0.7-15.1,2.1"/>
			<path class="st4" d="M426,278.1c-3-0.5-6.2,0.1-8.9,1.6"/>
		</g>
	</g>
</g>
</svg>
