<svg height="512pt" viewBox="0 0 512 512" width="512pt" xmlns="http://www.w3.org/2000/svg"><path d="m331 136c47.671875 0 85 40.160156 85 91.421875 0 65.128906-61.792969 107.230469-160 191.828125-98.546875-84.90625-160-126.84375-160-191.828125 0-51.261719 37.328125-91.421875 85-91.421875 23.410156 0 43.621094 9.328125 60.101562 27.710938l14.898438 16.648437 14.898438-16.648437c16.480468-18.382813 36.691406-27.710938 60.101562-27.710938zm0 0" fill="#fa5e97"/><path d="m336 286c-5.519531 0-10 4.480469-10 10s4.480469 10 10 10 10-4.480469 10-10-4.480469-10-10-10zm0 0"/><path d="m426 227.421875c0-56.871094-41.730469-101.421875-95-101.421875-26.355469 0-49.082031 10.441406-67.550781 31.042969l-7.449219 8.320312-7.453125-8.328125c-18.464844-20.59375-41.191406-31.035156-67.546875-31.035156-53.269531 0-95 44.550781-95 101.421875 0 72.027344 70.644531 119.421875 163.472656 199.402344 1.875 1.617187 4.203125 2.425781 6.527344 2.425781s4.652344-.808594 6.527344-2.421875c98.40625-84.765625 163.472656-128.910156 163.472656-199.40625zm-170 178.644531c-92.058594-78.925781-150-120-150-178.644531 0-45.65625 32.945312-81.421875 75-81.421875 20.429688 0 38.144531 8.203125 52.648438 24.378906l14.898437 16.648438c1.898437 2.121094 4.609375 3.332031 7.453125 3.332031s5.554688-1.210937 7.453125-3.332031l14.894531-16.640625c14.507813-16.183594 32.222656-24.386719 52.652344-24.386719 42.054688 0 75 35.765625 75 81.421875 0 58.636719-57.753906 99.617187-150 178.644531zm0 0"/><path d="m370.640625 271.609375c10.480469-15.304687 15.359375-29.34375 15.359375-44.1875 0-35.015625-23.644531-61.421875-55-61.421875-14.921875 0-26.917969 5.632812-37.75 17.730469-3.683594 4.113281-3.335938 10.433593.777344 14.121093 4.113281 3.683594 10.4375 3.335938 14.121094-.78125 7.042968-7.863281 13.664062-11.070312 22.851562-11.070312 19.953125 0 35 17.808594 35 41.421875 0 10.617187-3.769531 21.070313-11.859375 32.890625-3.121094 4.554688-1.957031 10.78125 2.601563 13.898438 4.542968 3.113281 10.773437 1.964843 13.898437-2.601563zm0 0"/><path d="m256 66c5.523438 0 10-4.476562 10-10v-46c0-5.523438-4.476562-10-10-10s-10 4.476562-10 10v46c0 5.523438 4.476562 10 10 10zm0 0"/><path d="m246 456v46c0 5.523438 4.476562 10 10 10s10-4.476562 10-10v-46c0-5.523438-4.476562-10-10-10s-10 4.476562-10 10zm0 0"/><path d="m0 256c0 5.523438 4.476562 10 10 10h46c5.523438 0 10-4.476562 10-10s-4.476562-10-10-10h-46c-5.523438 0-10 4.476562-10 10zm0 0"/><path d="m502 246h-46c-5.523438 0-10 4.476562-10 10s4.476562 10 10 10h46c5.523438 0 10-4.476562 10-10s-4.476562-10-10-10zm0 0"/><path d="m107.507812 121.652344c3.90625 3.902344 10.238282 3.902344 14.144532 0 3.90625-3.90625 3.90625-10.238282 0-14.144532l-28.289063-28.289062c-3.90625-3.90625-10.238281-3.90625-14.144531 0-3.90625 3.902344-3.90625 10.234375 0 14.140625zm0 0"/><path d="m418.640625 432.78125c3.902344 3.90625 10.234375 3.90625 14.140625 0s3.90625-10.238281 0-14.144531l-28.289062-28.289063c-3.90625-3.90625-10.238282-3.90625-14.144532 0-3.902344 3.90625-3.902344 10.238282 0 14.144532zm0 0"/><path d="m79.21875 432.78125c3.90625 3.90625 10.238281 3.90625 14.144531 0l28.289063-28.289062c3.90625-3.90625 3.90625-10.238282 0-14.144532s-10.238282-3.90625-14.144532 0l-28.289062 28.289063c-3.90625 3.90625-3.90625 10.238281 0 14.144531zm0 0"/><path d="m452.78125 79.21875c-3.90625-3.90625-10.238281-3.90625-14.144531 0l-28.289063 28.289062c-3.90625 3.90625-3.90625 10.238282 0 14.144532s10.238282 3.90625 14.144532 0l28.289062-28.289063c3.90625-3.90625 3.90625-10.238281 0-14.144531zm0 0"/></svg>