<?xml version="1.0" encoding="utf-8"?>
<!-- Generator: Adobe Illustrator 24.0.0, SVG Export Plug-In . SVG Version: 6.00 Build 0)  -->
<svg version="1.1" id="Layer_1" xmlns="http://www.w3.org/2000/svg" xmlns:xlink="http://www.w3.org/1999/xlink" x="0px" y="0px"
	 viewBox="0 0 1675.9 423.5" style="enable-background:new 0 0 1675.9 423.5;" xml:space="preserve">
<style type="text/css">
	.st0{fill-rule:evenodd;clip-rule:evenodd;fill:#F67615;}
	.st1{fill-rule:evenodd;clip-rule:evenodd;fill:#595A5C;}
	.st2{fill-rule:evenodd;clip-rule:evenodd;fill:#7E7D7D;}
	.st3{fill-rule:evenodd;clip-rule:evenodd;fill:#B4B3B3;}
	.st4{fill-rule:evenodd;clip-rule:evenodd;fill:#8B8A8A;}
	.st5{fill-rule:evenodd;clip-rule:evenodd;fill:#FCFCFC;}
	.st6{fill-rule:evenodd;clip-rule:evenodd;fill:#FCFDFD;}
</style>
<g>
	<path class="st0" d="M395,188.3c0-23.2,0-46.3,0-69.5c0-7.1-4.8-13.1-11-14.8c-1.6-0.4-3.3-0.5-4.9-0.7c-0.6-0.1-1.2,0-1.8,0
		c-47.1,0-94.2,0-141.3,0c-1,0-2.1,0-3.1,0.1c-0.8,1.5-0.4,2.9-0.5,4.3c-0.1,1.3,0,2.6,0,3.8c-1,0.8-2,0.5-3,0.5
		c-8.6,0-17.3,0-25.9,0c-2.3,0-4.6,0-6.9,0c-0.7,0-1.3-0.1-2.1-0.2c-0.5-2.8,0-5.4-0.4-7.9c-0.2-0.2-0.3-0.4-0.5-0.4
		c-4-0.1-8.1-0.3-12.1,0.1c-4.5,0.5-7.9,2.8-10.5,6.3c-0.2,0.2-0.3,0.4-0.4,0.7c-0.5,1.1-1.4,1.5-2.6,1.4c-1.6-0.1-3.2,0-4.8,0
		c-9.8,0-19.5,0-29.3,0c-1,0-1.9,0-2.7-0.1c-0.7-0.8-0.4-1.5-0.3-2.2c3.9-22.1,20.5-38.5,40.7-43.1c4.1-0.9,8.2-1.2,12.3-1.4
		c2.6-0.1,5.3,0,7.9,0c0.7,0,1.4-0.1,2.2-0.1c0.4-1.2,0.5-2.3,0.5-3.4C195.4,48,201,36.4,210.9,27c7.5-7.2,16.4-11.7,26.6-13.7
		c3.5-0.7,7-1,10.5-1c65.2,0,130.3,0,195.5,0c7.7,0,15,1.5,22,4.6c10.8,4.8,19.1,12.4,24.9,22.7c3.3,5.7,5.3,11.9,6.2,18.4
		c0.4,3,0.6,6,0.6,8.9c0,36.1,0,72.2,0,108.3c0,1.1,0.1,2.3,0.2,3.4c-1.8,0-3.7,0.1-5.5,0.1c-0.6,0-1.3-0.1-1.8,0
		c-2.7,0.6-5.4,0.4-8.1,0.5c-0.8,0-1.6-0.1-2.4,0.1c-1.6,0.5-3.3,0.3-5,0.4c-3.5,0.2-7,0.4-10.5,0.6c-0.3,0-0.5,0-0.8,0.1
		c-1.4,0.5-2.8,0.4-4.2,0.3c0-38,0-75.9,0-113.9c0-1.6-0.1-3.2-0.5-4.7c-1.5-6-5.3-9.8-11.2-11.4c-1.9-0.5-3.8-0.4-5.8-0.4
		c-63.9,0-127.9,0-191.8,0c-1.1,0-2.1,0-3.2,0c-6.8,0.4-12.4,5.1-14,11.6c-0.2,1-0.5,2-0.2,3.2c1.1,0,2.2,0.1,3.2,0.1
		c44.8,0,89.7,0,134.5,0c4.2,0,8.4,0.2,12.7,0.2c3.3,0,6.5,0.6,9.6,1.4c15.5,4.1,27.1,13.2,34.6,27.3c4,7.5,5.9,15.6,5.9,24.1
		c0,20.5,0,41,0,61.6c0,1.1,0.1,2.3,0.1,3.4c-1,0.1-1.9,0.1-2.9,0.3c-2.3,0.3-4.7,0.6-7,0.9c-2,0.2-4,0.4-6,0.6
		c-1.6,0.2-3.1,0.4-4.7,0.6c-1.8,0.3-3.6,0.6-5.4,0.8c-2.1,0.3-4.1,0.6-6.2,0.9C399,187.8,397,188.1,395,188.3z"/>
	<path class="st1" d="M331,237.5c12.7-1.6,25.1-2.7,37.7-3.7c0.1,0.6,0.2,1.1,0.3,1.6c0,0.5,0,1.1,0,1.6c0,43.2,0,86.3,0,129.5
		c0,6.8-0.9,13.5-3.3,20c-6.9,18.7-22.9,30.9-39.7,34c-3.1,0.6-6.3,1-9.4,1c-1.1,0-2.1,0-3.2,0c-64.2,0-128.4,0-192.6,0
		c-5.1,0-10.2-0.4-15.2-1.7c-18.8-5-33.6-19.9-38.2-39c-1-4.1-1.5-8.3-1.5-12.6c0-19.6,0-39.3,0-58.9c0-0.6,0-1.2,0-1.9
		c0.6-0.3,1.1-0.7,1.6-0.9c11.5-4.5,22.9-9,34.4-13.5c0.6-0.2,1.1-0.3,1.7-0.5c0.5,1,0.3,2,0.3,3c0,23.7,0,47.4,0,71.1
		c0,1.5,0.1,3,0.3,4.5c1.1,6.9,7.5,12.5,14.7,12.4c0.7,0,1.4,0,2.1,0c64.3,0,128.6,0,192.9,0c1.7,0,3.4,0,5-0.3
		c7.1-1.5,11.8-7.4,12-14.8c0-1.1,0-2.1,0-3.2c0-41.4,0-82.8,0-124.2C330.9,239.8,330.9,238.8,331,237.5z"/>
	<path class="st0" d="M66,298.8c-0.1-0.9-0.2-1.7-0.2-2.6c0-41.5-0.1-83,0-124.4c0.1-22.5,13.5-40.9,32.4-49.1
		c6.5-2.8,13.4-4.2,20.5-4.2c21.7,0,43.3,0,65,0c14.8,0,29.6,0,44.4,0c29,0,57.9,0.1,86.9,0c6.2,0,12.3,0.9,18.1,3
		c10.3,3.6,18.6,9.9,25.1,18.5c5.4,7.3,8.7,15.5,10,24.4c0.4,2.6,0.5,5.3,0.5,7.9c0.1,6.1,0,12.2,0,18.2c0,0.8-0.2,1.6,0.6,2.1
		c-0.2,0.1-0.5,0.3-0.7,0.3c-3.3,0-6.4,1-9.6,1.5c-3,0.5-6,1.1-9,1.7c-4.2,0.8-8.4,1.8-12.6,2.6c-2.2,0.4-4.4,1.3-6.7,1.1
		c0-1-0.1-1.9-0.1-2.9c0-7.8,0-15.7,0-23.5c0-1.5-0.2-3-0.3-4.5c-0.8-6.1-6.7-12.3-14-12.5c-1.3,0-2.6,0-4,0c-63.5,0-127,0-190.5,0
		c-1.1,0-2.1,0-3.2,0c-7.7-0.1-14,6.2-14.7,12.6c-0.2,1.4-0.3,2.8-0.3,4.2c0,16.6,0,33.1,0,49.7c0,17.7,0,35.4,0,53.1
		c0,0.9-0.2,1.9,0.2,2.8c0.3,0.1,0.6,0.2,0.8,0.2c-0.2,0.2-0.4,0.4-0.6,0.5c-2.1,0.9-4.2,1.7-6.2,2.7c-3.5,1.7-6.8,3.6-10.3,5.3
		c-7,3.5-13.9,7-20.7,10.9C66.8,298.7,66.4,298.7,66,298.8z"/>
	<path class="st1" d="M66,298.8c0.3-0.1,0.7-0.1,1-0.2c6.8-3.8,13.8-7.4,20.7-10.9c3.4-1.7,6.8-3.6,10.3-5.3c2-1,4.2-1.8,6.2-2.7
		c0.2-0.1,0.4-0.3,0.6-0.5c0.7-0.4,1.4-0.7,2.1-1.1c6.7-3.2,13.3-6.4,20-9.5c42.3-19.4,85.8-35.9,130.4-49.3
		c23.4-7,47-13.3,70.9-18.5c0.9-0.2,1.9-0.2,2.7-0.9c2.3,0.1,4.5-0.7,6.7-1.1c4.2-0.8,8.4-1.7,12.6-2.6c3-0.6,6-1.2,9-1.7
		c3.2-0.5,6.3-1.5,9.6-1.5c0.2,0,0.5-0.2,0.7-0.3c7.9-1.3,15.7-2.6,23.6-3.9c0.6-0.1,1.2-0.3,1.8-0.4c2-0.2,4-0.5,6-0.7
		c2.1-0.3,4.1-0.6,6.2-0.9c1.8-0.3,3.6-0.6,5.4-0.8c1.6-0.2,3.1-0.5,4.7-0.6c2-0.2,4-0.4,6-0.6c2.3-0.3,4.7-0.6,7-0.9
		c1-0.1,1.9-0.2,2.9-0.3c0.3,0,0.5,0,0.8,0c5.2-0.5,10.3-1,15.5-1.5c3.3-0.3,6.6-0.7,9.9-1c1.4,0.1,2.8,0.2,4.2-0.3
		c0.2-0.1,0.5-0.1,0.8-0.1c3.5-0.2,7-0.4,10.5-0.6c1.7-0.1,3.3,0,5-0.4c0.7-0.2,1.6-0.1,2.4-0.1c2.7-0.1,5.4,0.2,8.1-0.5
		c0.6-0.1,1.2,0,1.8,0c1.8,0,3.7-0.1,5.5-0.1c8.1-0.2,16.2-0.3,24.3-0.5c4.1-0.1,8.3,0,12.4,0c11.4,0.1,22.9,0.5,34.3,1.4
		c0.9,0.1,1.7,0,2.7,0c0.8-6.6,1.5-13,2.3-19.5c0.4,0.1,0.7,0.1,0.9,0.2c3.1,2,63.8,46.2,65.1,47.4c0,0.1,0,0.2,0,0.3
		s-0.1,0.1-0.2,0.2c-24.6,10.4-49.1,20.8-73.7,31.1c-0.2,0.1-0.5,0.1-0.9,0.1c0-0.5-0.1-1-0.1-1.5c0.6-5.2,1.2-10.5,1.8-15.7
		c0.2-1.7,0.3-3.3,0.5-5c-1.1-0.8-2.2-0.7-3.3-0.9c-9-1.1-18-2.2-27-2.8c-8.1-0.5-16.2-1.1-24.2-1.6c-17.9-1-35.9-1.1-53.9-0.8
		c-10,0.2-20.1,0.6-30.1,1.1c-8.1,0.4-16.2,0.9-24.2,1.6c-8.4,0.7-16.8,1.5-25.2,2.4c-6.8,0.7-13.7,1.5-20.5,2.3
		c-7,0.9-13.9,1.9-20.9,2.9c-5.7,0.9-11.5,1.7-17.2,2.7c-9.2,1.6-18.4,3.2-27.5,5c-14.2,2.8-28.2,5.9-42.3,9.3
		c-33.8,8.2-67,18.2-99.8,29.9c-38,13.6-75,29.4-111.1,47.3c-1.6,0.8-3.3,1.4-5,2.1c-0.4,0-0.9-0.1-1.3-0.1c0.6-0.4,1.1-0.7,1.7-1.1
		c0.5,0.1,0.8-0.1,1.1-0.6l0,0c0.2-0.1,0.4-0.3,0.6-0.4c5.8-3.3,11.5-6.7,17.3-10c3.3-1.9,6.8-3.7,10.1-5.6
		C64.8,299.8,65.4,299.2,66,298.8z"/>
	<path class="st1" d="M433.2,315.5c-0.6,31.3-26.8,55-57.5,52.8c-0.6-0.8-0.3-1.8-0.3-2.7c0-10.6,0-21.1,0-31.7c0-1,0-2.1,0.1-3.2
		c1-0.5,2-0.2,2.9-0.3c1.6-0.1,3.2-0.1,4.7-0.4c6.2-1.2,11-6.5,11.9-12.7c0.1-0.6,0-1.2,0-2c-2.3,0-4.4,0-6.5,0s-4.2,0-6.3,0
		c-2.1,0-4.2,0-6.5,0c-0.1-0.6-0.3-1.1-0.3-1.6c0-11.6,0-23.2,0-34.9c0-0.4,0.1-0.9,0.2-1.3c2.2-0.4,4.3-0.2,6.4-0.2
		c2.2,0,4.4,0,6.6,0c2.1,0,4.2,0.1,6.4-0.1c0.4-2.6,0.2-5,0.2-7.5c0-2.6,0-5.1,0-7.7c0-2.5,0-4.9,0-7.4s0-4.9,0-7.4
		c0-2.6,0-5.1,0-7.7c0-2.5,0-4.9,0-7.4c0.7-0.1,1.2-0.3,1.7-0.3c11.8-0.6,23.6-0.9,35.4-1c0.2,0,0.5,0.1,0.9,0.3
		c0.1,1.9,0,3.8,0,5.7s0,3.9,0,5.8c0,1.8,0,3.7,0,5.5c0,1.9,0,3.9,0,5.8s0,3.9,0,5.8c0,1.9,0,3.9,0,5.8c0,1.8,0,3.7,0,5.5
		c0,1.9-0.1,3.8,0.1,5.9c0.7,0.1,1.2,0.2,1.7,0.2c3.1,0,6.2,0,9.2,0c7.8,0.1,15.2-6.1,15.2-15.3c0.1-9.2,0-18.5,0-27.7
		c0-0.9,0.1-1.9,0.1-3c6.4-0.3,12.6,0.3,18.8,0.5c6.2,0.2,12.5,0.6,18.8,1c0.1,0.6,0.3,1.1,0.3,1.6c0,9.7,0.2,19.4,0,29.1
		c-0.7,26-19.2,45.8-41.7,50.8c-3.7,0.8-7.5,1.2-11.3,1.2c-3,0-6,0-9,0C434.7,315.3,434.1,315.4,433.2,315.5z"/>
	<path class="st1" d="M1468.1,329.2c-12.3,0-23.2,0-34,0c-2.6-3.7-1.6-7.4-1.6-11c-0.1-39.4,0-78.8-0.1-118.2c0-3.3-0.2-6.6-0.3-9.9
		c0-0.2-0.6-0.3-1.6-0.9c-8.6,8.7-16,18.5-24.1,27.9c-7.9,9.2-15.6,18.6-23.5,27.9c-8,9.6-16.1,19.1-24.7,29.3
		c-24.7-28.4-48.1-57.1-72.1-84.9c-1.2,0.4-1.6,0.4-1.8,0.7c-0.2,0.2-0.3,0.7-0.3,1c-0.1,0.7-0.2,1.5-0.2,2.2
		c-0.1,44.2-0.1,88.4-0.2,132.5c0,0.4-0.1,0.7-0.2,1.1c-0.1,0.3-0.3,0.7-0.4,1c-6.7,2.2-16.6,2.6-34.3,1.1c-0.4-2.2-1.1-4.6-1.1-7
		c-0.1-15.8-0.1-31.7-0.1-47.5c0-42.3,0-84.7,0-127c0-4,0.1-8,0.1-12.5c2.7-0.5,4.8-1.1,6.9-1.1c8.1-0.1,16.2,0.3,24.3-0.2
		c5.7-0.3,9.6,1.7,13.2,6.1c17.5,21.3,35.4,42.4,53.2,63.5c4,4.7,7.6,9.9,13,14.5c2.7-2.9,5.2-5.5,7.5-8.2
		c18.2-21.7,36.3-43.5,54.6-65.2c10.5-12.5,6.4-10.4,22.1-10.5c7.4-0.1,14.7,0.1,22.1,0.2c0.7,0,1.4,0.4,2.6,0.8
		c2.2,2.9,1.2,6.7,1.2,10.2c0.1,42,0.1,83.9,0.1,125.9c0,15.5,0,30.9,0,46.4C1468.4,320.9,1468.2,324.5,1468.1,329.2z"/>
	<path class="st1" d="M662.4,329.6c-1.5-11-1.5-185.4-0.1-195c2.4-0.3,4.8-0.8,7.3-0.8c49,0,98-0.1,147,0.1c5.4,0,11.2,0.7,16.2,2.7
		c15,6,23.8,17.5,24.3,33.8c0.7,18.8,0.7,37.6,0,56.4c-0.7,19.4-16.1,34.5-35.4,36.1c-3.3,0.3-6.6,0.1-9.9,0.1
		c-33.9,0-67.8,0-101.7,0c-3.6,0-7.3,0-11.6,0c-0.4,3-1,5.5-1,7.9c-0.1,15.5,0,30.9-0.1,46.4c0,3.6-0.2,7.3-0.4,11.5
		C685.4,330.4,674.1,329.3,662.4,329.6z M819.5,170.6c-1.6-0.2-3.3-0.6-5-0.6c-36.8,0-73.6-0.1-110.4,0c-2,0-4.1,0.8-5.9,1.2
		c-1.6,17.5-1.1,46.8,1.1,54.7c1.9,0.1,4.1,0.4,6.3,0.4c36.1,0,72.1,0,108.2,0c2.1,0,4.2-0.6,6-0.8
		C821.2,214.5,821.1,179.9,819.5,170.6z"/>
	<path class="st1" d="M1057.5,172.6c12.3-0.1,23.2-0.1,33.8,0.1c2.3,4.7,1.5,8.8,1.5,12.8c0.1,31.7,0,63.3,0.1,95
		c0,4,0.1,8,0.2,12.1c7.9,2.6,15.3,1.1,22.5,1.4c7.4,0.3,14.7,0.1,22.1,0.1c7,0,14,0.1,21,0c7.3-0.1,14.6,0.3,21.3-0.3
		c2.6-4.8,1.7-8.9,1.7-12.9c0.1-31.7,0-63.3,0.1-95c0-4,0.2-8,0.3-11.8c8.8-1.9,24.8-2,34.9-0.3c0.2,2.3,0.6,4.8,0.6,7.3
		c0,57.1,0,114.2,0.1,171.2c0,5.6-0.6,11.1-2.8,16.2c-6.4,14.3-17,22.8-33.2,23.4c-3.3,0.1-6.6,0.1-9.9,0.1c-25.4,0-50.8,0-76.2,0
		c-3.6,0-7.2-0.3-11.2-0.4c-1.5-11.6-0.4-22.5-0.7-32.8c2.7-3.5,5.9-2.5,8.7-2.5c25.8-0.1,51.6,0,77.3-0.1c3.6,0,7.2-0.3,11.2-0.4
		c1.7-8.6,1.2-16.5,0.5-24.2c-3.1-2.7-6.6-1.8-9.8-1.8c-24.3-0.1-48.6,0-72.9-0.1c-4.4,0-8.9-0.1-13.1-1.1
		c-15.4-3.8-26.5-17.2-28.1-33.2c-0.3-2.6-0.2-5.2-0.2-7.7c0-34.6,0-69.2,0-103.8C1057.1,180.4,1057.3,177.1,1057.5,172.6z"/>
	<path class="st1" d="M873.2,232.9c11.5-0.5,21.7-0.2,32-0.2c9.9-0.1,19.9,0,29.8,0c10.3,0,20.6,0,30.9,0c9.9,0,19.8,0,30.2,0
		c2.4-8,1.1-15.6,0.9-22.9c-3-2.9-6.5-1.8-9.7-1.9c-33.5-0.1-67-0.1-100.5-0.1c-4,0-8,0-11.8,0c-2.4-7.6-2.8-20.4-1-34.9
		c1.9-0.2,4-0.7,6.1-0.7c38.3,0,76.6,0.1,114.9-0.1c12.8-0.1,22.8,5,30.6,14.8c3.7,4.7,6.3,10,6.9,16c0.4,4,0.7,8.1,0.7,12.1
		c0.1,34.6,0.1,69.2,0,103.8c0,3.2-0.3,6.5-0.5,10.1c-2.7,0.3-4.9,0.6-7,0.6c-38.3,0-76.6,0-114.9,0c-14.1,0-24.6-6.4-32.3-17.9
		c-3.1-4.7-5.2-9.9-5.3-15.5C873.1,275.6,873.2,255,873.2,232.9z M997.1,269.6c-16.2-1.4-79.3-1-88.3,0.6c0.5,7.6-1.7,15.4,1.4,23.8
		c27.5,0,54.7,0,81.9,0c1.4,0,2.8-0.4,4.7-0.7C997.9,285.4,997.5,277.9,997.1,269.6z"/>
	<path class="st1" d="M1661.2,294c0.7,12.4,0.7,23.3,0.1,34.8c-2.7,0.3-4.8,0.7-6.9,0.7c-38.3,0-76.6-0.3-114.8,0.2
		c-20.5,0.3-38.7-17.2-38.5-38.5c0.3-26.9,0.1-53.7,0.1-80.6c0-14,5.9-24.8,17.4-32.6c5.9-4.1,12.6-5.8,19.8-5.8
		c12.9,0.1,25.8,0,38.6,0c15.8,0,31.7,0,47.5,0c14.2,0,24.4,6.8,31.9,18.4c3.3,5.1,4.9,10.9,5,16.7c0.3,19.8,0.1,39.7,0.1,59.1
		c-3.5,3.6-7.4,2.4-10.9,2.4c-33.5,0.1-67,0-100.5,0.1c-4,0-8.1-0.8-12.4,1.2c-1.8,7.4-0.7,14.9-0.6,22.2c4.2,2.5,7.9,1.6,11.5,1.6
		c33.5,0.1,67,0,100.5,0C1652.7,294,1656.4,294,1661.2,294z M1625.2,231.6c0.2-8.1,1.3-15.6-0.5-22.7c-1.6-0.5-2.2-0.9-2.9-0.9
		c-26.8-0.1-53.6-0.1-80.4,0c-1.3,0-2.6,0.8-4.2,1.3c-0.2,7.9-1.6,15.4,0.8,22.7C1550.1,233.1,1615.6,232.8,1625.2,231.6z"/>
	<path class="st2" d="M33.4,317.7c0.4,0,0.9,0.1,1.3,0.1c-0.4,0.3-0.7,0.8-1.1,1c-2.1,1.1-4.2,2.1-6.3,3.2c-0.2-0.2-0.3-0.4-0.5-0.5
		C28.9,320.2,31.1,319,33.4,317.7z"/>
	<path class="st3" d="M26.7,321.5c0.2,0.2,0.3,0.4,0.5,0.5c-2,1.2-4,2.7-6.4,3.1l0,0C22.6,323.6,24.6,322.5,26.7,321.5z"/>
	<path class="st4" d="M36.1,316.1c-0.2,0.5-0.6,0.6-1.1,0.6C35.4,316.5,35.8,316.3,36.1,316.1z"/>
	<path class="st4" d="M36.7,315.7c-0.2,0.1-0.4,0.3-0.6,0.4C36.3,316,36.5,315.8,36.7,315.7z"/>
	<path class="st3" d="M20.8,325.1c0,0.1-0.1,0.1-0.1,0.2C20.8,325.2,20.8,325.2,20.8,325.1C20.9,325.1,20.8,325.1,20.8,325.1z"/>
	<path class="st5" d="M997.1,269.6c0.4,8.2,0.8,15.8-0.3,23.7c-1.9,0.3-3.3,0.7-4.7,0.7c-27.2,0-54.4,0-81.9,0
		c-3.1-8.3-1-16.2-1.4-23.8"/>
	<path class="st6" d="M1621.8,207.9c0.7,0,1.4,0.4,2.9,0.9c1.8,7.1,0.8,14.6,0.5,22.7c-9.7,1.3-75.1,1.5-87.2,0.4
		c-2.4-7.3-1-14.8-0.8-22.7c1.6-0.5,2.9-1.3,4.2-1.3"/>
</g>
</svg>
